# xmcd CD database file
#
# Track frame offsets:
#	180
#	17916
#	34201
#	46373
#	66499
#	85300
#	100049
#	118698
#	134419
#	150353
#	177733
#	190298
#	204101
#	220182
#	241191
#	255671
#
# Disc length: 3604 seconds
#
# Revision: 2
# Processed by: cddbd v1.5.2PL0 Copyright (c) Steve Scherf et al.
# Submitted via: CDex 1.90
#
DISCID=e00e1210
DTITLE=The Songrise Orchestra - The Music of James Last (16 instrumental Hits)
DYEAR=1900
DGENRE=Instrumental hits
TTITLE0=Biscaya
TTITLE1=Dolanne`s Melodie
TTITLE2=Happy music
TTITLE3=I just called to say I love you
TTITLE4=Soca dance
TTITLE5=Blue tango
TTITLE6=The winner takes it all
TTITLE7=With You I`m born again
TTITLE8=Bamboleo
TTITLE9=The Lonely Shepherd
TTITLE10=Got  no place to go
TTITLE11=Skokiaan
TTITLE12=Lambada
TTITLE13=Unchained melody
TTITLE14=At this moment
TTITLE15=The girl from Ipanema
EXTD=
EXTT0=
EXTT1=
EXTT2=
EXTT3=
EXTT4=
EXTT5=
EXTT6=
EXTT7=
EXTT8=
EXTT9=
EXTT10=
EXTT11=
EXTT12=
EXTT13=
EXTT14=
EXTT15=
PLAYORDER=
